HIERARCHY
ROOT Hips
{
	OFFSET -14.64140 90.27770 -84.91600
	CHANNELS 6 Xposition Yposition Zposition Zrotation Xrotation Yrotation
	JOINT Spine
	{
		OFFSET 0.00000 13.20850 -1.60436
		CHANNELS 3 Zrotation Xrotation Yrotation
		JOINT Spine1
		{
			OFFSET 0.00000 8.61716 0.00000
			CHANNELS 3 Zrotation Xrotation Yrotation
			JOINT Spine2
			{
				OFFSET 0.00000 8.61717 0.00000
				CHANNELS 3 Zrotation Xrotation Yrotation
				JOINT Spine3
				{
					OFFSET 0.00000 8.61717 0.00000
					CHANNELS 3 Zrotation Xrotation Yrotation
					JOINT Neck
					{
						OFFSET 0.00000 11.07920 1.10792
						CHANNELS 3 Zrotation Xrotation Yrotation
						JOINT Neck1
						{
							OFFSET 0.00000 7.08032 0.00000
							CHANNELS 3 Zrotation Xrotation Yrotation
							JOINT Head
							{
								OFFSET 0.00000 7.08031 0.00000
								CHANNELS 3 Zrotation Xrotation Yrotation
								End site
								{
									OFFSET 0.00000 0.00000 0.00000
								}
							}
						}
					}
					JOINT RightShoulder
					{
						OFFSET -0.01000 7.91373 5.19711
						CHANNELS 3 Zrotation Xrotation Yrotation
						JOINT RightArm
						{
							OFFSET -18.41580 0.00000 0.00000
							CHANNELS 3 Zrotation Xrotation Yrotation
							JOINT RightForeArm
							{
								OFFSET -29.11090 0.00000 0.00000
								CHANNELS 3 Zrotation Xrotation Yrotation
								JOINT RightHand
								{
									OFFSET -24.65040 0.00000 0.00000
									CHANNELS 3 Zrotation Xrotation Yrotation
									JOINT RightHandThumb1
									{
										OFFSET -5.35114 -0.85590 3.97906
										CHANNELS 3 Zrotation Xrotation Yrotation
										JOINT RightHandThumb2
										{
											OFFSET -4.52789 0.00000 0.00000
											CHANNELS 3 Zrotation Xrotation Yrotation
											JOINT RightHandThumb3
											{
												OFFSET -2.46976 0.00000 0.00000
												CHANNELS 3 Zrotation Xrotation Yrotation
												End site
												{
													OFFSET 0.00000 0.00000 0.00000
												}
											}
										}
									}
									JOINT RightHandIndex1
									{
										OFFSET -14.26970 0.00000 2.88139
										CHANNELS 3 Zrotation Xrotation Yrotation
										JOINT RightHandIndex2
										{
											OFFSET -5.48836 0.00000 0.00000
											CHANNELS 3 Zrotation Xrotation Yrotation
											JOINT RightHandIndex3
											{
												OFFSET -3.01859 0.00000 0.00000
												CHANNELS 3 Zrotation Xrotation Yrotation
												End site
												{
													OFFSET 0.00000 0.00000 0.00000
												}
											}
										}
									}
									JOINT RightHandMiddle1
									{
										OFFSET -14.26970 0.00000 -0.09147
										CHANNELS 3 Zrotation Xrotation Yrotation
										JOINT RightHandMiddle2
										{
											OFFSET -6.17441 0.00000 0.00000
											CHANNELS 3 Zrotation Xrotation Yrotation
											JOINT RightHandMiddle3
											{
												OFFSET -3.56743 0.00000 0.00000
												CHANNELS 3 Zrotation Xrotation Yrotation
												End site
												{
													OFFSET 0.00000 0.00000 0.00000
												}
											}
										}
									}
									JOINT RightHandRing1
									{
										OFFSET -12.69180 0.00000 -3.06433
										CHANNELS 3 Zrotation Xrotation Yrotation
										JOINT RightHandRing2
										{
											OFFSET -5.62556 0.00000 0.00000
											CHANNELS 3 Zrotation Xrotation Yrotation
											JOINT RightHandRing3
											{
												OFFSET -3.56744 0.00000 0.00000
												CHANNELS 3 Zrotation Xrotation Yrotation
												End site
												{
													OFFSET 0.00000 0.00000 0.00000
												}
											}
										}
									}
									JOINT RightHandPinky1
									{
										OFFSET -11.11390 0.00000 -6.03719
										CHANNELS 3 Zrotation Xrotation Yrotation
										JOINT RightHandPinky2
										{
											OFFSET -4.52789 0.00000 0.00000
											CHANNELS 3 Zrotation Xrotation Yrotation
											JOINT RightHandPinky3
											{
												OFFSET -2.46976 0.00000 0.00000
												CHANNELS 3 Zrotation Xrotation Yrotation
												End site
												{
													OFFSET 0.00000 0.00000 0.00000
												}
											}
										}
									}
								}
							}
						}
					}
					JOINT LeftShoulder
					{
						OFFSET 0.01000 7.91373 5.19711
						CHANNELS 3 Zrotation Xrotation Yrotation
						JOINT LeftArm
						{
							OFFSET 18.41580 0.00000 0.00000
							CHANNELS 3 Zrotation Xrotation Yrotation
							JOINT LeftForeArm
							{
								OFFSET 29.11090 0.00000 0.00000
								CHANNELS 3 Zrotation Xrotation Yrotation
								JOINT LeftHand
								{
									OFFSET 24.65040 0.00000 0.00000
									CHANNELS 3 Zrotation Xrotation Yrotation
									JOINT LeftHandThumb1
									{
										OFFSET 5.35114 -0.85590 3.97906
										CHANNELS 3 Zrotation Xrotation Yrotation
										JOINT LeftHandThumb2
										{
											OFFSET 4.52789 0.00000 0.00000
											CHANNELS 3 Zrotation Xrotation Yrotation
											JOINT LeftHandThumb3
											{
												OFFSET 2.46977 0.00000 0.00000
												CHANNELS 3 Zrotation Xrotation Yrotation
												End site
												{
													OFFSET 0.00000 0.00000 0.00000
												}
											}
										}
									}
									JOINT LeftHandIndex1
									{
										OFFSET 14.26970 0.00000 2.88139
										CHANNELS 3 Zrotation Xrotation Yrotation
										JOINT LeftHandIndex2
										{
											OFFSET 5.48836 0.00000 0.00000
											CHANNELS 3 Zrotation Xrotation Yrotation
											JOINT LeftHandIndex3
											{
												OFFSET 3.01859 0.00000 0.00000
												CHANNELS 3 Zrotation Xrotation Yrotation
												End site
												{
													OFFSET 0.00000 0.00000 0.00000
												}
											}
										}
									}
									JOINT LeftHandMiddle1
									{
										OFFSET 14.26970 0.00000 -0.09147
										CHANNELS 3 Zrotation Xrotation Yrotation
										JOINT LeftHandMiddle2
										{
											OFFSET 6.17440 0.00000 0.00000
											CHANNELS 3 Zrotation Xrotation Yrotation
											JOINT LeftHandMiddle3
											{
												OFFSET 3.56744 0.00000 0.00000
												CHANNELS 3 Zrotation Xrotation Yrotation
												End site
												{
													OFFSET 0.00000 0.00000 0.00000
												}
											}
										}
									}
									JOINT LeftHandRing1
									{
										OFFSET 12.69180 0.00000 -3.06433
										CHANNELS 3 Zrotation Xrotation Yrotation
										JOINT LeftHandRing2
										{
											OFFSET 5.62556 0.00000 0.00000
											CHANNELS 3 Zrotation Xrotation Yrotation
											JOINT LeftHandRing3
											{
												OFFSET 3.56744 0.00000 0.00000
												CHANNELS 3 Zrotation Xrotation Yrotation
												End site
												{
													OFFSET 0.00000 0.00000 0.00000
												}
											}
										}
									}
									JOINT LeftHandPinky1
									{
										OFFSET 11.11390 0.00000 -6.03719
										CHANNELS 3 Zrotation Xrotation Yrotation
										JOINT LeftHandPinky2
										{
											OFFSET 4.52789 0.00000 0.00000
											CHANNELS 3 Zrotation Xrotation Yrotation
											JOINT LeftHandPinky3
											{
												OFFSET 2.46976 0.00000 0.00000
												CHANNELS 3 Zrotation Xrotation Yrotation
												End site
												{
													OFFSET 0.00000 0.00000 0.00000
												}
											}
										}
									}
								}
							}
						}
					}
					JOINT pCube4
					{
						OFFSET 0.00000 10.91090 1.10792
						CHANNELS 3 Zrotation Xrotation Yrotation
						End site
						{
							OFFSET 0.00000 0.00000 0.00000
						}
					}
				}
			}
		}
	}
	JOINT RightUpLeg
	{
		OFFSET -9.98441 0.00000 0.00000
		CHANNELS 3 Zrotation Xrotation Yrotation
		JOINT RightLeg
		{
			OFFSET 0.00000 -42.11790 0.00000
			CHANNELS 3 Zrotation Xrotation Yrotation
			JOINT RightFoot
			{
				OFFSET 0.00000 -45.00020 -0.00001
				CHANNELS 3 Zrotation Xrotation Yrotation
				JOINT RightForeFoot
				{
					OFFSET 0.00000 -3.74820 0.00000
					CHANNELS 3 Zrotation Xrotation Yrotation
					JOINT RightToeBase
					{
						OFFSET 0.00000 0.06325 14.43120
						CHANNELS 3 Zrotation Xrotation Yrotation
						End site
						{
							OFFSET 0.00000 0.00000 0.00000
						}
					}
				}
			}
		}
	}
	JOINT LeftUpLeg
	{
		OFFSET 9.98441 0.00000 0.00000
		CHANNELS 3 Zrotation Xrotation Yrotation
		JOINT LeftLeg
		{
			OFFSET 0.00000 -42.11800 0.00000
			CHANNELS 3 Zrotation Xrotation Yrotation
			JOINT LeftFoot
			{
				OFFSET 0.00000 -45.00070 0.00000
				CHANNELS 3 Zrotation Xrotation Yrotation
				JOINT LeftForeFoot
				{
					OFFSET 0.00000 -3.74824 0.00000
					CHANNELS 3 Zrotation Xrotation Yrotation
					JOINT LeftToeBase
					{
						OFFSET 0.00000 0.06325 14.43110
						CHANNELS 3 Zrotation Xrotation Yrotation
						End site
						{
							OFFSET 0.00000 0.00000 0.00000
						}
					}
				}
			}
		}
	}
}
MOTION
Frames: 4
Frame Time: 0.050000
-0.009645933234183293 -0.0050295107969384216 -0.024147543696105486 -0.04011860475848511 -0.00957732473067472 0.04446814063577706 4.48829727803176 2.4861066792172024 -2.0509206952568997 -0.7051282374594262 3.575228309119824 0.405521226946607 -0.6503133542484156 -1.1172746077442524 1.4984614598282295 0.008929561474082841 -0.3291730178221768 -0.20342126762303842 0.681020578045159 11.869696735014116 -3.3596144986204752 0.3300933978312999 -0.666983547463657 -9.256531162856914 1.4784340024678437 -16.99197615570896 -0.765786478599141 -9.010026007866632 3.1897968121109135 -15.91731735931129 75.58194126768858 21.33250556755195 15.611750869188507 33.02426953044804 9.278404603060261 87.52237060788607 18.828248565250956 -0.41845687100858586 -7.768969712910947 4.524628780544936 -0.15364852850594818 -1.5601977954727813 0.018739229746446016 0.03051252176113129 -56.26224507681372 0.002619669289461818 -0.04160047259155214 -56.195295985773534 -38.758565555441756 0.04951946131582297 -0.006803665180309674 -0.02882842793557712 0.028169430245572523 -0.030456397616276804 0.03630157089573895 -0.014114812271687453 0.040389054862231204 -36.73830400689285 -0.017947604230601585 0.01881320308911191 -0.02391972600443989 0.029641310406923027 -0.032801947312746785 -0.014149531073583594 0.049048805599952054 -0.023754186144673357 -19.76226525794261 -0.03988456965897822 0.0027086700936168042 0.04866824385101917 -0.023297807487947676 0.017752707512410603 -0.03804102086834822 0.0023979670887655587 0.0022245203607039695 24.069478467994575 -0.0078005988883722375 0.034557280126500806 28.876963517334634 0.009046095827741029 -0.013234328897294784 28.817709597033343 0.023726614864527575 0.0313923258763331 8.093038797275089 2.031551678601997 13.897824986595678 -74.12211744182376 26.574379676137482 -10.280369513576483 -30.030653937651223 8.276431727199824 -80.60090215165702 -24.46948590893412 -8.469886511277918 6.019946310489161 -0.5111727636787917 0.045947400098080404 -8.147426474845135 -0.018307320695824063 0.00448219971945739 44.570691009061505 0.038520140924748335 -0.022569466302970555 44.54922568365616 12.465427287761553 0.025663910694739864 -0.03657965017664578 0.04687046296653577 0.005099068827579502 -0.0071892804838633445 0.021377361802437527 0.026340801766000718 0.004137195117282321 11.133674360057324 -0.0034146103959956744 0.022907120945677796 -0.03446264393044278 -0.000340507603670281 0.03641489807939503 -0.030656513383805303 -0.04411733572350803 0.04103134113160074 4.7763498614294235 0.04228918272396573 -0.00874316136199308 -0.03512118104987744 0.005895702751659461 0.017169262391476744 -0.0015766252593173978 -0.011211309994884618 0.01582423747902093 -5.641392526740941 -0.02514389314504613 -0.026386682558409293 -6.74092067598138 -0.007756910199065505 -0.026629153676606666 -6.672087715303449 0.01980094686335452 0.0042148050813662664 -0.0029225950271462146 0.004185145512544319 -0.037054945398672184 8.062262063126893 3.489369669573397 -19.20856337319311 0.014743534035567317 10.3544638089359 -0.033136884126849175 -5.595771349145073 -15.65690852452793 3.188284251884253 -0.03989591224774814 0.01635926764921105 0.04622565882455333 -6.556528681193469e-05 4.719482330389443 0.03767397692700411 12.421008136265268 -8.213169928447781 6.8439093585883075 0.03385222915030582 46.34718332713536 0.02154099213357332 -4.292421931616125 -14.714477936490374 -3.835220994362376 -0.045464670258294856 0.02909672602055662 -0.04620313689979018 0.042100574000037215 -10.776090657554239 -0.030768728703264775 
0.027645709817363258 0.02372287551392284 -0.039513997732182844 0.011123725984765598 -0.030758308963890008 -0.0061504269073279745 4.624322598421649 2.4528534193466647 -2.138495995500643 -0.6901171570584552 3.506532737170854 0.40909361285930407 -0.6737634246368776 -1.1376568909585478 1.5766661630599912 -0.07124868349247393 -0.3261146489197976 -0.2240303247988529 0.671935092567919 11.975620186941315 -3.2312034518288884 0.29744076819554005 -0.5949837955649805 -8.657216365701204 1.4955861582214292 -16.880851755466683 -0.7440740997744625 -9.332328351934203 3.3217641460462115 -16.205784753779287 77.00833546060258 19.830415499745598 15.281508106717634 27.597555963559934 8.059264778090668 87.51416354214777 18.35602181426888 -0.4336456625919138 -7.00984973906547 4.53571362307112 -0.11742387856817839 -1.6046327799766427 0.03261446616783643 0.0013972859315905955 -56.20780466269243 -0.014010607234741871 -0.02472241479420463 -56.250290513451695 -38.768530359939426 0.001556031502249821 0.028665347845027504 -0.008225910585443716 -0.045101397353632645 0.03277218774641335 0.011630671889289821 -0.005360074149698478 0.025161610837692222 -36.661748909428866 0.04441968493932379 -0.037461326731678984 0.011433905840439084 -0.03119251022268748 0.028976126424410015 -0.01607872418636107 0.024431460412576204 0.03589014774637032 -19.76265930923377 -0.020856359409040928 -0.00043964879478313633 0.02880656170464059 0.033137155490667466 -0.044454711531216745 0.026154537115568293 0.00023169585387631817 -0.011940769615014633 24.068966727701916 -0.028106325855806236 -0.016008829655727003 28.847613663005873 0.03127102325703949 0.028752875156893416 28.900297054160273 0.04910981395299702 0.02728667449499233 8.507560487556175 2.1883087558764713 14.077523999723297 -74.70725093757837 25.67798889231527 -10.625743459009215 -26.317096334221954 7.20937051270607 -78.5059772575016 -23.680904034260635 -8.072969528031075 5.779954068174031 -0.4401156087501103 0.080906180575357 -8.152961672946246 -0.04070359056928285 0.021720023516756035 44.61644682679956 -0.02310023189132589 -0.025604742544730587 44.601489766342254 12.465586525546055 0.025860980274814732 -0.011114315336770885 0.004971354189086434 0.0007419751301513441 0.04129913091735765 -0.027558470567249364 0.029540792515444694 -0.04225684722974773 11.093811189252685 -0.01467954311316517 -0.022907237461269464 -0.01858767440956354 0.018692402952682218 0.03077223480553367 -0.013503959114727338 -0.01604544470362955 0.015918395226204342 4.780632807038916 -0.006898575380903816 0.044436387870425746 -0.01635730278248828 0.0075458417387979405 0.01605350456508378 -0.011060034883130733 0.004042700391459568 0.04489061131624834 -5.582709602386926 0.030211270525772736 -0.012889754296543614 -6.710101788711496 -0.010878379866558237 -0.03774759547312505 -6.748636772046991 0.011039402544468111 -0.01760825117838593 -0.026550585858022786 0.003090768801529795 0.014353453989001083 8.042764259192396 3.5299485332255798 -19.20125066464254 -0.025749857671203386 10.402610419120414 0.04851823741603997 -5.587315592143182 -15.631116844149922 3.1736051980614604 -0.005928705011931228 0.03168160790027914 0.002010419180336783 0.010120336606299844 4.673281892535542 -0.00010427666591557143 12.439157872360298 -8.21021238578345 6.923879538750807 0.04775997512347871 46.36870574436234 0.0005327748083310433 -4.3006105518017534 -14.741872665554704 -3.801820619724559 0.03643890883915994 0.018657534383635564 -0.02816397955502937 -0.028433013122396943 -10.782817426725963 -0.015270385605380141 
0.0499088410994854 0.014830082704430193 0.02865810464897546 0.037222675549313834 -0.018192142767587818 -0.030710564654480167 4.770681270578475 2.331216626876064 -2.1490965635030777 -0.6751333589066825 3.533613719823273 0.37530737949516074 -0.6470833140132176 -1.1452542177144902 1.5053954217477648 -0.1512677895413265 -0.3445081788920853 -0.2594416683190519 0.6109386981385803 11.917178207055446 -2.997133571571436 0.352327865318111 -0.4901264125545038 -7.973412194424277 1.3810235003519167 -16.724201181331015 -0.7142555169040361 -9.59752615323825 3.404573648045699 -16.498608236749977 78.24427005014462 19.023612816251013 14.623490874990534 22.470685624559454 6.832367489618206 88.43996104972643 17.803611839188857 -0.4844977800647924 -6.213370584064779 4.533072057935156 -0.1533123279678201 -1.5995098838587627 -0.006007800982826221 -0.04866892346154498 -56.238158496556046 -0.003534554567405076 -0.0036130676628919932 -56.23273196587665 -38.80209030033128 -0.0040688424375215 -0.01587495118520582 -0.010141729602342362 -0.030699895689037974 0.03969530044582566 0.026664104617947958 0.0396737473310535 0.01897823477085977 -36.651128341832006 0.04037071798659756 -0.005055917384840536 -0.0018561354529397246 -0.04464747061989126 -0.01917598956924854 -0.029784764076328105 0.005256446070287592 0.027614754165789165 -19.786211667396852 0.00029417332699744724 -0.041226898914876964 -0.00248913800803153 -0.0268818403105715 -0.03081519492928513 -0.010266934228813179 0.008871815373147365 -0.043423813374694906 24.06805226746392 -0.007592689183369275 -0.0022462267985455123 28.881126921691322 -0.040055644281446 -0.030664013808555924 28.817267986732986 0.01060379440062773 -0.013727311016393793 8.791660501861665 2.188609875921106 14.225849183075114 -75.18652141900846 25.240277797927074 -10.640115176146653 -24.239454473639714 6.861015223784727 -77.47415039603341 -23.007941684395508 -7.859727373370766 5.632301475096134 -0.44642067833643356 0.04940027129702351 -8.141644761028004 0.02664516512499329 -0.042974713196378606 44.5487417680393 -0.018144890708852966 -0.013468687966902215 44.591846969230986 12.44070302527012 -0.012945160659195718 0.005931064633938414 -0.03271563256565144 0.007688578752823521 -0.005150380712050788 -0.005652369554918064 -0.015511352329796209 -0.006833094023531516 11.098149876828225 -0.008973404502356605 0.010988133434874706 0.03503531601251047 -0.0438427669910107 0.04578911671329736 0.0005915655459666449 -0.009812695518544438 -0.04046752282519185 4.791282464388047 -0.021545019293973504 0.03264364735212632 -0.021601157679854106 -0.012363057042956347 -0.03415940170845533 0.02122111732529275 -0.005443013672110241 -0.027069641535270538 -5.564426104542524 0.002457670993815316 -0.010004049540697313 -6.708417955670324 0.006185427830308977 0.035584504500680604 -6.726090906712917 -0.014980263236967441 -0.045841991597239076 -0.030391734643030344 -0.04085690349882164 -0.042081581472930944 8.054636984382526 3.5179828346398505 -19.213226372937182 0.02314637179846598 10.44189608216036 0.026243242662492405 -5.609608323489224 -15.698906025461529 3.200359431447314 -0.013857206136665388 -0.0032029590641606607 0.039835347175215 0.035643540695372025 4.72722153522588 -0.041208265814714824 12.501140074314907 -8.201164819300294 6.9112230499461775 0.014761076509702296 46.376262402062125 -0.016567014840483556 -4.31766248331244 -14.766123365854803 -3.86147964854014 0.0034157333636203073 0.029483855880983963 -0.025162132504338998 -0.02120804419981258 -10.70289160271104 0.0017807185100343962 
0.012769629484764781 0.03383995861929087 -0.037782558658256034 -0.034029460373168445 0.013034839574979357 0.04710507182947417 4.780581640728394 2.23379434959353 -2.2082532875552716 -0.6690400507322676 3.4755797025649606 0.40289835715994954 -0.6551962537921537 -1.1725116443317891 1.43088363957387 -0.2770732322785985 -0.4066853129029801 -0.18722318214071354 0.5109124916302336 11.888384023907493 -2.7244218825634463 0.38541946202736016 -0.3969480041892713 -7.050414780139957 1.3824889486459617 -16.673274325467194 -0.6301790121766787 -9.55571448688296 3.378988117173097 -16.676207179763047 79.36633237616931 18.910148342475562 13.508003764017417 17.499379561540515 5.203102626793167 89.92261403852572 17.274566846187977 -0.4769810410608024 -5.540392075072853 4.504003067980372 -0.10794716468328777 -1.5492655430761373 0.03399826726561782 -0.007160549670440285 -56.235003526135664 0.029715360738260747 0.02743366806271307 -56.247856327377434 -38.72446373667983 -0.007785058973424589 -0.029384549545635647 -0.003011972835972332 0.043000820512004045 0.003089657216838079 -0.002307261461080662 0.04461393813995547 -0.04069528814925317 -36.72212097297539 -0.04820699733338024 -0.011037605701000493 -0.018308046337846603 0.003307459522590959 0.0009541710449505949 -0.02471119970176098 -0.010109178045842047 -0.02855631162189454 -19.78021261734728 -0.012888749996038954 0.029286565542742577 0.022198357221765882 0.004434570517353095 0.02319110842021096 0.0034611911312164493 -0.024874566034771 -0.023121186112502252 24.058458016191658 0.013103161012316926 -0.005463747237535845 28.868041166141385 -0.047848949256535385 -0.00573553155210524 28.852166603925607 0.02761073643458367 -0.035629065900418484 8.976367463152537 2.2480659232921893 14.335936394365802 -75.77897133671094 25.172132042527736 -10.415285903708035 -23.855867326989635 7.085203619685243 -77.56513842723162 -22.547228127669875 -8.000856124032286 5.674613862972742 -0.451218262285778 0.1010181330311764 -8.107933071408851 -0.03774067835646844 0.008090473110571008 44.561578153275356 0.04452427827095256 -0.046229152700364456 44.53449563558184 12.45076129215367 -0.048030915357860395 0.0390273409705465 -0.022872326433781336 -0.00029160200739398247 0.044264509640336125 -0.013078583546661929 -0.016841104156207213 -0.010520123335213176 11.149486522077654 -0.030224054608265643 -0.017866408497004944 0.04812011040592669 -0.026618623466541116 -0.0009386025854785094 0.024028118211047084 0.015271236193651073 -0.0008064507127114453 4.77354219098206 0.013966604535735455 0.04118036415613442 -0.04452806580302548 0.024093936072786076 -0.03094075548051717 0.017635098142807025 -0.02544045005045406 0.008107361326424162 -5.570916456679519 0.0001604776301067829 -0.014911580938505278 -6.682456729499569 -0.037047416198495234 -0.04175287171263696 -6.6787581574150625 0.002361252305986429 -0.0053759957747638335 0.010470034429938435 -0.024955656390461475 0.04279728872388266 8.053812803630477 3.521221671402492 -19.212685544404742 0.0033640416724746492 10.3986659451788 -0.005906446550563296 -5.621339572102989 -15.70169223633474 3.1714878972358185 0.04813735479658645 0.014042148263810748 -0.049649983096218715 -0.020041398147709475 4.705856497102578 -0.04325079568350867 12.418158210191267 -8.27790042939839 6.860019011995626 -0.018903519004059587 46.37547052322578 0.0418143638222719 -4.300941923258971 -14.78666302564643 -3.834675946092595 0.011086178989591782 -0.028782551863851827 0.03608548801625301 0.036122292589704466 -10.773703140041222 0.039682647268438107 
